<svg xmlns="http://www.w3.org/2000/svg" viewBox="0 0 415.68 210.3"><defs><style>.cls-1{fill:#e5ddc7;}.cls-2{fill:#f9dedf;}.cls-3{fill:#f7ede8;}.cls-4{fill:#98aa80;}.cls-5{fill:#86996e;}.cls-6{fill:#b7c99f;}.cls-7{fill:#a7ba91;}.cls-8{fill:#c2d1ac;}.cls-9{fill:#b4c69e;}.cls-10{fill:#97aa7e;}.cls-11{fill:#efdec5;}.cls-12{fill:#eadabb;}.cls-13{fill:#ddcaab;}.cls-14{fill:#c9b293;}.cls-15{fill:#b59b7d;}.cls-16{fill:#fce9d2;}.cls-17{fill:#f4e3c9;}.cls-18{fill:#ddc9a8;}.cls-19{fill:#c1c697;}.cls-20{fill:#b7ba88;}.cls-21{fill:#a9aa75;}.cls-22{fill:#d6dbb2;}.cls-23{fill:#e7eaca;}.cls-24{fill:#dee2bc;}.cls-25{fill:#ecedcc;}.cls-26{fill:#dfe2bf;}.cls-27{fill:#c8cca2;}.cls-28{fill:#c8cc9f;}.cls-29{fill:#bec191;}.cls-30{fill:#999b6f;}.cls-31{fill:#afb283;}.cls-32{fill:#e2d9bc;}.cls-33{fill:#d8cfad;}.cls-34{fill:#baae90;}.cls-35{fill:#c6bc9e;}.cls-36{fill:#c6ba95;}.cls-37{fill:#a89778;}.cls-38{fill:#b7a98a;}.cls-39{fill:#d8ceb6;}.cls-40{fill:#f7ecda;}.cls-41{fill:#efe5d0;}.cls-42{fill:#d1c7b2;}.cls-43{fill:#e2dacf;}.cls-44{fill:#d8d0c0;}.cls-45{fill:#c9bda6;}.cls-46{fill:#b7c6a7;}.cls-47{fill:#aebc9c;}.cls-48{fill:#a3b290;}.cls-49{fill:#c8d6b9;}.cls-50{fill:#d6e5c7;}.cls-51{fill:#cfddc0;}.cls-52{fill:#efe0bf;}.cls-53{fill:#f9ecd7;}.cls-54{fill:#f7e8cb;}.cls-55{fill:#e0d0b1;}.cls-56{fill:#d3c1a7;}.cls-57{fill:#af8c8f;}.cls-58{fill:#ceaeb0;}</style></defs><g id="Layer_2" data-name="Layer 2"><g id="bunga_bawah" data-name="bunga bawah"><path class="cls-1" d="M310.48,118.29l-.16,0h0Z"/><path class="cls-1" d="M284.84,151.49v0l.81.18.31.56Z"/><path class="cls-2" d="M296,158.71c5.3,3.43,10.76,6.94,16.95,8.21,5.06,1,10.3.53,15.45,0,8.88-.9,17.82-1.8,26.44-4.15,1.76-.48,3.51-1,5.27-1.49a38.85,38.85,0,0,1,5.82-1.22l.68.66-.51.19c-.84.15-1.68.32-2.5.51l-.62.16c-5.6,1.39-11,3.61-16.58,5a94.65,94.65,0,0,1-15.92,2.16c-6.39.44-12.9.67-19.11-.9s-11.79-4.81-17.29-8a23.44,23.44,0,0,1-5.85-4.28A16.71,16.71,0,0,1,286,152.2Z"/><path class="cls-1" d="M366.71,160.82l-.61.1.51-.19Z"/><path class="cls-1" d="M156.32,178.86l-.43-.33,4.05-.42C158.74,178.37,157.53,178.62,156.32,178.86Z"/><path class="cls-1" d="M218.12,101.87c-.13.18-.27.35-.4.52a4,4,0,0,1,.21-.58Z"/><path class="cls-1" d="M344.57,116.36c0,.13,0,.27.05.4-.85-1.48-1.69-3-2.55-4.46Z"/><path class="cls-2" d="M331.11,97.45a112.77,112.77,0,0,1-7.75-12q-10-17.07-20-34.14a25.32,25.32,0,0,0-4.26-5.88c-2.74-2.55-6.56-3.82-9-6.63-1.61-1.84-2.51-4.18-3.88-6.21-2-3-5-5.22-7.93-7.37L253.61,7.08a168.48,168.48,0,0,1,27.54,18.76,30.27,30.27,0,0,1,5.53,5.61c1.32,1.91,2.26,4.1,3.86,5.78s3.93,2.83,5.88,4.27c3.76,2.76,6.29,6.84,8.74,10.81l29.58,48.07,4.41,7.18c-.28-.42-.56-.83-.85-1.23C336.07,103.24,333.44,100.46,331.11,97.45Z"/><path class="cls-1" d="M263.38,77l-.1,0a.59.59,0,0,0,0-.14Z"/><path class="cls-2" d="M220.75,23.24c2,2.67,3,5.91,4.37,8.92C232,46.94,247.9,55.24,257.59,68.34c1.71,2.31,3.26,4.8,4.85,7.25L241.65,54,235,47.11a84.42,84.42,0,0,1-7.3-8.28c-3.68-5-6.26-10.82-10.43-15.43-6.35-7-15.68-10.47-23.24-16.16C191,4.92,187.86,2.13,184.48.41L184.24,0l.53.08A262.91,262.91,0,0,0,209.83,15.3C213.83,17.43,218.05,19.59,220.75,23.24Z"/><path class="cls-1" d="M253,6.72l-.26-.32.92.68Z"/><path class="cls-1" d="M342.07,112.3q-1.45-2.37-2.92-4.74C340.18,109.09,341.14,110.68,342.07,112.3Z"/><path class="cls-2" d="M164,177.19c12.94-3.13,25.75-8,36-16.54,3.8-3.17,7.2-6.8,10.85-10.16A100.19,100.19,0,0,1,255,126.93c5.91-1.42,12-2.3,17.77-4.12,4.42-1.38,8.67-3.3,13.15-4.49A47.85,47.85,0,0,1,302.12,117c2.07-.15,4.16-.24,6.24-.29.64.52,1.28,1,1.94,1.51h0l-.29,0a71.38,71.38,0,0,0-14.39-.45,53.35,53.35,0,0,0-19.56,5.06,57.14,57.14,0,0,1-7.54,3.5c-3.17,1-6.54,1.07-9.84,1.47-11.94,1.44-23,7.14-32.84,14s-18.77,15-28.43,22.19c-6.78,5-14.07,9.66-22.23,11.83a83.25,83.25,0,0,1-12.57,2l-2.69.27C161.3,177.82,162.65,177.52,164,177.19Z"/><path class="cls-1" d="M263.19,76.38c0,.16.05.33.07.49l-.82-1.28Z"/><path class="cls-1" d="M252,5.86l.33,0,.41.5Z"/><path class="cls-2" d="M71.6,108.58c2.72-1.43,5.3-3.12,7.93-4.74a143.7,143.7,0,0,1,37.05-16.25,123.47,123.47,0,0,1,28.57-4.42c.21.31.44.61.65.91l1,1.44a37.19,37.19,0,0,0-5.27-.32A68.57,68.57,0,0,0,128.21,87c-14.63,3.1-29.22,7.16-42.36,14.3-3.75,2-7.36,4.31-11.14,6.28a100.41,100.41,0,0,1-16,6.53l-.48-.18c.6-.29,1.19-.6,1.78-.93A55.87,55.87,0,0,0,71.6,108.58Z"/><path class="cls-3" d="M20.86,44.48c1.7,1.34,3.3,2.81,5.1,4,3.12,2.06,6.76,3.18,10.34,4.28L90.47,69.34c1,.31,2,.61,3,.87.08.29.15.59.21.89l-.93.19c-15.87-3.82-31.06-10.79-47-14.53-4.31-1-8.71-1.79-12.8-3.47C25.79,50.37,20,44.93,13.45,40.84a57.43,57.43,0,0,0-12.92-6L0,34.1H.16C7.47,36.77,14.77,39.68,20.86,44.48Z"/><path class="cls-2" d="M106.38,38.72l.22.06a156.5,156.5,0,0,1,46.63,20.53,80.39,80.39,0,0,0,7.07,4.36c4.21,2.16,8.83,3.34,13.32,4.81,12.85,4.18,25.23,10.78,38.59,12,.95.08,1.9.15,2.86.18h.41l-1.52.55-.37.14a53.25,53.25,0,0,1-5.78.2c-8.93-.36-16.92-5.3-25.29-8.44C174.74,70.23,166.38,68.81,159,65c-6.93-3.53-12.74-9-19.69-12.48-4.95-2.47-10.35-3.89-15.58-5.68A195.5,195.5,0,0,1,104.78,39Z"/><path class="cls-2" d="M153.13,137.84a56.46,56.46,0,0,0,10.53-1.38c6.41-1.62,12.15-5.12,17.79-8.57l11.44-7c6.59-4,13.21-8.1,19.06-13.14l.25-.2c1.15-1,2.27-2,3.48-3l.74-.53c-.5.65-1,1.3-1.53,1.94a42.32,42.32,0,0,1-6.42,6.74c-4.35,3.47-9.72,5.4-14.41,8.41S185.64,128,181,130.72c-4.23,2.52-9,4-13.67,5.49a72.92,72.92,0,0,1-12.08,3c-5.08.67-10.23.26-15.35.34-3,0-5.94.26-8.92.23a70.23,70.23,0,0,1-16.81-2.38l-1.43-1.2A205.08,205.08,0,0,0,153.13,137.84Z"/><path class="cls-2" d="M217.53,103.32c-.37.23-.74.47-1.11.73l1.3-1.66A5.68,5.68,0,0,0,217.53,103.32Z"/><path class="cls-4" d="M296.05,161.94l7.16,3.46a41,41,0,0,0,6.62,2.73c4.35,1.23,9,1,13.48,1.21a101.33,101.33,0,0,1,18.61,3c2.23.55,4.67,1.27,5.91,3.21,1.12,1.75.9,3.95.13,5.95l-.45.5c-4.72,4.82-11.4,6.38-18.31,6.28.64-.11,1.27-.22,1.9-.35,2.91-.59,5.91-1.53,7.92-3.71s2.58-5.92.52-8a9.06,9.06,0,0,0-3.43-1.92,57.5,57.5,0,0,0-9.73-3.06c-3.63-.68-7.36-.66-11-1.1-4.84-.6-9.53-2-14.28-3.09a5.56,5.56,0,0,0-2.29-.19c-1.67.32-2.61,2.07-2.61,3.81a116.83,116.83,0,0,1-6.91-10.7,6.46,6.46,0,0,1,.88,0A16.59,16.59,0,0,1,296.05,161.94Z"/><path class="cls-5" d="M286,152.2a16.71,16.71,0,0,0,2.28,3.34,23.44,23.44,0,0,0,5.85,4.28c5.5,3.21,11.11,6.47,17.29,8s12.72,1.34,19.11.9a94.65,94.65,0,0,0,15.92-2.16c5.6-1.38,11-3.6,16.58-5l.62-.16c.82-.19,1.66-.36,2.5-.51-.71.29-1.4.6-2.08.94a20.92,20.92,0,0,0-5.85,4.23c-4.27,4.49-6.06,10.89-10.21,15.45.77-2,1-4.2-.13-5.95-1.24-1.94-3.68-2.66-5.91-3.21a101.33,101.33,0,0,0-18.61-3c-4.52-.22-9.13,0-13.48-1.21a41,41,0,0,1-6.62-2.73l-7.16-3.46a16.59,16.59,0,0,0-5.91-2,6.46,6.46,0,0,0-.88,0q-2.38-4.14-4.42-8.47Z"/><path class="cls-6" d="M300.83,173.37a6.23,6.23,0,0,1,2.87-.88c4.3-.47,8.63.7,12.67,2.25a17.42,17.42,0,0,1,4.71,2.44,20.48,20.48,0,0,1,4.22,5.08,1.89,1.89,0,0,1,.45,1.31,1.75,1.75,0,0,1-.89,1,15,15,0,0,1-6.78,2.34l-.68-.15a24.22,24.22,0,0,1-16.51-10.06c-.45-.54-.88-1.1-1.32-1.65A3.07,3.07,0,0,1,300.83,173.37Z"/><path class="cls-7" d="M298.78,166.85a5.56,5.56,0,0,1,2.29.19c4.75,1.09,9.44,2.49,14.28,3.09,3.67.44,7.4.42,11,1.1a57.5,57.5,0,0,1,9.73,3.06,9.06,9.06,0,0,1,3.43,1.92c2.06,2.13,1.49,5.87-.52,8s-5,3.12-7.92,3.71c-.63.13-1.26.24-1.9.35A58.11,58.11,0,0,1,318.08,187a15,15,0,0,0,6.78-2.34,1.75,1.75,0,0,0,.89-1,1.89,1.89,0,0,0-.45-1.31,20.48,20.48,0,0,0-4.22-5.08,17.42,17.42,0,0,0-4.71-2.44c-4-1.55-8.37-2.72-12.67-2.25a6.23,6.23,0,0,0-2.87.88,3.07,3.07,0,0,0-1.26,1.72c-1.16-1.45-2.31-2.92-3.4-4.43C296.17,168.92,297.11,167.17,298.78,166.85Z"/><path class="cls-8" d="M342.26,146.35c1.74,1.46,2.66,4.17,1.4,6.06a6,6,0,0,1-2.79,2c-3.6,1.49-7.58,1.8-11.48,1.87-5.55.1-11.43-.37-16-3.55A6.23,6.23,0,0,1,311,150a3.25,3.25,0,0,1-.08-2,81.44,81.44,0,0,1,10.27-2.75,91.12,91.12,0,0,1,15.32-1h.66A11.9,11.9,0,0,1,342.26,146.35Z"/><path class="cls-9" d="M303,153.51a6.5,6.5,0,0,1,.64-3.27c2.46-.7,4.89-1.5,7.32-2.28a3.25,3.25,0,0,0,.08,2,6.23,6.23,0,0,0,2.4,2.74c4.55,3.18,10.43,3.65,16,3.55,3.9-.07,7.88-.38,11.48-1.87a6,6,0,0,0,2.79-2c1.26-1.89.34-4.6-1.4-6.06a11.9,11.9,0,0,0-5.08-2.19,52.13,52.13,0,0,1,6.62.26,12.93,12.93,0,0,1,2.54,1.36c2.78,1.92,4.66,5.57,3.47,8.73-1,2.63-3.71,4.14-6.25,5.34a41.94,41.94,0,0,1-10.87,3.75c-4.51.74-9.11.25-13.65-.21-3.41-.35-6.9-.7-10-2.17S303.27,156.92,303,153.51Z"/><path class="cls-7" d="M358,157.72a7.51,7.51,0,0,1-3.85,2.76,76.19,76.19,0,0,1-39.63,5.06,42.84,42.84,0,0,1-6.44-1.35,29.43,29.43,0,0,1-15.84-12,41.67,41.67,0,0,0,8.49-1.2c1-.23,1.91-.49,2.86-.76a6.5,6.5,0,0,0-.64,3.27c.3,3.41,3,6.25,6.07,7.71s6.59,1.82,10,2.17c4.54.46,9.14,1,13.65.21a41.94,41.94,0,0,0,10.87-3.75c2.54-1.2,5.25-2.71,6.25-5.34,1.19-3.16-.69-6.81-3.47-8.73a12.93,12.93,0,0,0-2.54-1.36,19.77,19.77,0,0,1,5.24,1.32,27.73,27.73,0,0,1,8,5.8,7.54,7.54,0,0,1,.68,1A5.28,5.28,0,0,1,358,157.72Z"/><path class="cls-10" d="M292.26,152.2a29.43,29.43,0,0,0,15.84,12,42.84,42.84,0,0,0,6.44,1.35,76.19,76.19,0,0,0,39.63-5.06,7.51,7.51,0,0,0,3.85-2.76,5.28,5.28,0,0,0-.32-5.19,7.54,7.54,0,0,0-.68-1c.32.29.63.59.94.89l6.17,5.92,1.8,1.72a38.85,38.85,0,0,0-5.82,1.22c-1.76.48-3.51,1-5.27,1.49-8.62,2.35-17.56,3.25-26.44,4.15-5.15.52-10.39,1-15.45,0-6.19-1.27-11.65-4.78-16.95-8.21L286,152.2l-.31-.56A27.56,27.56,0,0,0,292.26,152.2Z"/><path class="cls-11" d="M239.62,158.92a3.73,3.73,0,0,1,1.86-.2,3.82,3.82,0,0,1,2.17,2c2.27,3.68,4,8,3.3,12.25-.68,4.11-3.52,7.5-6.36,10.56-.75.81-1.53,1.59-2.3,2.39A58.88,58.88,0,0,1,210,196.81a60.19,60.19,0,0,1-7,.3,12.67,12.67,0,0,1,1.08-5.55A54.71,54.71,0,0,1,239.62,158.92Z"/><path class="cls-12" d="M191.58,186a15.56,15.56,0,0,1,3.94-11.46c3.19-3.62,7.74-5.71,11.48-8.75,2.89-2.35,5.28-5.25,7.93-7.88,8-7.94,18.26-13.18,28.32-18.29,6.47-3.28,13.13-6.63,20.35-7.31,1.28-.12,2.76-.08,3.59.9,1.21,1.42.18,3.57-.86,5.12q-2.86,4.26-5.74,8.53a33.21,33.21,0,0,0-4.52,8.31,23.54,23.54,0,0,0-.6,10.23c-1.28,2.28-2.55,4.57-4,6.76a53.15,53.15,0,0,1-13.2,13.76c.77-.8,1.55-1.58,2.3-2.39,2.84-3.06,5.68-6.45,6.36-10.56.72-4.27-1-8.57-3.3-12.25a3.82,3.82,0,0,0-2.17-2,3.73,3.73,0,0,0-1.86.2,54.71,54.71,0,0,0-35.54,32.64,12.67,12.67,0,0,0-1.08,5.55c-1.12,0-2.24,0-3.36-.11a12.31,12.31,0,0,1-1.76-.83A13.2,13.2,0,0,1,191.58,186Z"/><path class="cls-13" d="M179.67,181.34a161.07,161.07,0,0,1,16.23-16.19c.52-.37,1-.74,1.53-1.12,3.83-2.83,7.54-5.83,11.23-8.83A160.07,160.07,0,0,1,242,137.25a126.73,126.73,0,0,1,18.05-5.66c3.92-.89,8.12-1.53,11.87-.11s6.74,5.6,5.51,9.42a7.92,7.92,0,0,1-.56,1.26,55.38,55.38,0,0,0-18.79,18.73c-.92,1.47-1.77,3-2.62,4.49a23.54,23.54,0,0,1,.6-10.23,33.21,33.21,0,0,1,4.52-8.31q2.87-4.28,5.74-8.53c1-1.55,2.07-3.7.86-5.12-.83-1-2.31-1-3.59-.9-7.22.68-13.88,4-20.35,7.31-10.06,5.11-20.3,10.35-28.32,18.29-2.65,2.63-5,5.53-7.93,7.88-3.74,3-8.29,5.13-11.48,8.75A15.56,15.56,0,0,0,191.58,186a13.2,13.2,0,0,0,6.3,10.19,12.31,12.31,0,0,0,1.76.83,71.08,71.08,0,0,1-27.84-7.88,26.56,26.56,0,0,0,2.37-1.86A60.42,60.42,0,0,0,179.67,181.34Z"/><path class="cls-14" d="M156.32,178.86c1.21-.24,2.42-.49,3.62-.75l2.69-.27a83.25,83.25,0,0,0,12.57-2c7.55-2,14.36-6.11,20.7-10.71a161.07,161.07,0,0,0-16.23,16.19,60.42,60.42,0,0,1-5.5,5.92,26.56,26.56,0,0,1-2.37,1.86,77.2,77.2,0,0,1-9.58-5.83C160.25,181.88,158.29,180.36,156.32,178.86Z"/><path class="cls-15" d="M288.52,128a20.6,20.6,0,0,0-7.25-1c-14,0-27.85,2.58-41.34,6.48a60.62,60.62,0,0,1,18.77-5.7c3.3-.4,6.67-.48,9.84-1.47a57.14,57.14,0,0,0,7.54-3.5,53.35,53.35,0,0,1,19.56-5.06,71.38,71.38,0,0,1,14.39.45l.29,0,.4.29c-.41.31-.81.63-1.21,1C304.08,124,299.61,130,293.74,134a5.76,5.76,0,0,0-.17-1A8,8,0,0,0,288.52,128Z"/><path class="cls-14" d="M225.86,141.84a100.09,100.09,0,0,1,14.07-8.33c13.49-3.9,27.33-6.5,41.34-6.48a20.6,20.6,0,0,1,7.25,1,8,8,0,0,1,5.05,5,5.76,5.76,0,0,1,.17,1c-.4.27-.81.54-1.22.79-3.85,2.33-8.2,3.68-12.25,5.61q-1.74.84-3.39,1.8a7.92,7.92,0,0,0,.56-1.26c1.23-3.82-1.75-8-5.51-9.42s-7.95-.78-11.87.11A126.73,126.73,0,0,0,242,137.25a160.07,160.07,0,0,0-33.35,17.95C214.3,150.62,219.91,146,225.86,141.84Z"/><path class="cls-16" d="M256.5,104.34a4.92,4.92,0,0,1,2,4.46,6.14,6.14,0,0,1-1.82,3.09,36.27,36.27,0,0,1-8.8,6.11c-5.63,3.11-11.28,6.16-16.94,9.21-8.11,4.37-16.28,8.77-25.08,11.51-2.08.64-4.5,1.14-6.3-.09a4.93,4.93,0,0,1-1.62-5.21c.45-.36.89-.73,1.35-1.09,8.1-6.28,16.8-11.89,24-19.18l.54-.54a62.66,62.66,0,0,1,6.73-6.61c.31-.23.63-.45.95-.67a94,94,0,0,1,15.35-2.71C250.21,102.31,253.87,102.28,256.5,104.34Z"/><path class="cls-17" d="M193.87,139.34c.74-1.4,1.39-2.81,2-4.24.69-.57,1.4-1.12,2.1-1.68a4.93,4.93,0,0,0,1.62,5.21c1.8,1.23,4.22.73,6.3.09,8.8-2.74,17-7.14,25.08-11.51,5.66-3,11.31-6.1,16.94-9.21a36.27,36.27,0,0,0,8.8-6.11,6.14,6.14,0,0,0,1.82-3.09,4.92,4.92,0,0,0-2-4.46c-2.63-2.06-6.29-2-9.61-1.72a94,94,0,0,0-15.35,2.71,33.28,33.28,0,0,1,9.64-4.24,69.54,69.54,0,0,1,23.11-2.4,20.39,20.39,0,0,1,6.84,5.56,9,9,0,0,1,2.23,5.16,7.71,7.71,0,0,1-3,5.91,23,23,0,0,1-6,3.26L248.9,125a85.17,85.17,0,0,0-13.94,6.8c-2.86,1.85-5.5,4-8.29,6-8.87,6.21-19.26,10-27.94,16.51a21.36,21.36,0,0,1-4.55,3,5.92,5.92,0,0,1-5.24-.07,6.23,6.23,0,0,1-2.4-3.14C184.29,148.29,187.93,141,193.87,139.34Z"/><path class="cls-18" d="M279.29,113.66c2-2.53,3.55-5.9,2.51-9a7.65,7.65,0,0,0-3.44-4c2.11.46,4.21,1,6.27,1.59A47.34,47.34,0,0,1,298,108c3.73,2.52,6.93,5.87,10.41,8.72-2.08,0-4.17.14-6.24.29a47.85,47.85,0,0,0-16.21,1.28c-4.48,1.19-8.73,3.11-13.15,4.49-5.8,1.82-11.86,2.7-17.77,4.12l-.72.19c2-.7,4.06-1.37,6.07-2.07C267.4,122.61,274.61,119.48,279.29,113.66Z"/><path class="cls-12" d="M168,170.53a27.23,27.23,0,0,0,6.89-6q.41-.52.78-1.11A51.88,51.88,0,0,0,179,156c3.53-8.32,9.9-15,16.89-20.85-.62,1.43-1.27,2.84-2,4.24-5.94,1.65-9.58,8.95-7.33,14.69a6.23,6.23,0,0,0,2.4,3.14,5.92,5.92,0,0,0,5.24.07,21.36,21.36,0,0,0,4.55-3c8.68-6.48,19.07-10.3,27.94-16.51,2.79-2,5.43-4.15,8.29-6A85.17,85.17,0,0,1,248.9,125l15.39-6.4a23,23,0,0,0,6-3.26,7.71,7.71,0,0,0,3-5.91,9,9,0,0,0-2.23-5.16,20.39,20.39,0,0,0-6.84-5.56,87.92,87.92,0,0,1,14.07,2,7.65,7.65,0,0,1,3.44,4c1,3.08-.48,6.45-2.51,9-4.68,5.82-11.89,9-19,11.39-2,.7-4,1.37-6.07,2.07a100.11,100.11,0,0,0-43.44,23.37c-3.65,3.36-7.05,7-10.85,10.16-10.23,8.53-23,13.41-36,16.54-1.35.33-2.7.63-4.06.92l-4.05.42-1.39-1.05A70.84,70.84,0,0,0,168,170.53Z"/><path class="cls-19" d="M135.92,148a36.09,36.09,0,0,1,9.84-3.29l12.2-2.81a32.24,32.24,0,0,1,8.76-1.2,10.94,10.94,0,0,1,7.9,3.48c2.43,2.9,2.5,7.3.84,10.69a17.68,17.68,0,0,1-8.15,7.6c-.86.44-1.75.83-2.64,1.2-11.13-1.33-22.81-3.12-32.13-9a4.79,4.79,0,0,1,0-3.15A7,7,0,0,1,135.92,148Z"/><path class="cls-20" d="M140.49,144.3a170.94,170.94,0,0,1,35.71-7,6.7,6.7,0,0,1,3.92.47c2.54,1.45,2.17,5.17,1.45,8L179,155.9s0,0,0,0a51.88,51.88,0,0,1-3.33,7.45q-.37.58-.78,1.11c-3.38-.11-6.78-.45-10.07-.84l-.14,0c.89-.37,1.78-.76,2.64-1.2a17.68,17.68,0,0,0,8.15-7.6c1.66-3.39,1.59-7.79-.84-10.69a10.94,10.94,0,0,0-7.9-3.48,32.24,32.24,0,0,0-8.76,1.2l-12.2,2.81a36.09,36.09,0,0,0-9.84,3.29,7,7,0,0,0-3.4,3.49,4.79,4.79,0,0,0,0,3.15,38.2,38.2,0,0,1-3.61-2.63,11,11,0,0,1,2.74-3.5C134.17,146.38,137.36,145.27,140.49,144.3Z"/><path class="cls-21" d="M120.39,143.35q-3-3.1-6.22-5.91A70.23,70.23,0,0,0,131,139.82c3,0,6-.18,8.92-.23,5.12-.08,10.27.33,15.35-.34a72.92,72.92,0,0,0,12.08-3c4.7-1.47,9.44-3,13.67-5.49,4.64-2.76,8.51-6.66,13.06-9.58s10.06-4.94,14.41-8.41a42.32,42.32,0,0,0,6.42-6.74c.52-.64,1-1.29,1.53-1.94.37-.26.74-.5,1.11-.73a6.41,6.41,0,0,0,0,1.16,4.83,4.83,0,0,0,.35,1.5,12.44,12.44,0,0,0,2.58,3.51,28.9,28.9,0,0,1,2.87,3.66c-7.19,7.29-15.89,12.9-24,19.18-8.29,6.43-16.2,13.93-20.32,23.57l2.56-10.16c.72-2.84,1.09-6.56-1.45-8a6.7,6.7,0,0,0-3.92-.47,170.94,170.94,0,0,0-35.71,7c-3.13,1-6.32,2.08-8.82,4.19a11,11,0,0,0-2.74,3.5c-.18-.14-.36-.27-.53-.42A111,111,0,0,1,120.39,143.35Z"/><path class="cls-22" d="M139.14,126.77a5,5,0,0,0,1.72,3.88c2.25,1.85,5.44,1.89,8.35,1.8a77.81,77.81,0,0,0,13.72-1.36c12.58-2.69,23.28-10.66,33.53-18.43,3-2.26,6.31-5.26,5.82-9a7.26,7.26,0,0,0-4-5.14l-.49-.23a75.74,75.74,0,0,1,18.94,3.16l1.19.34a4,4,0,0,0-.21.58l-1.3,1.66-.74.53c-1.21.92-2.33,2-3.48,3l-.25.2c-5.85,5-12.47,9.1-19.06,13.14l-11.44,7c-5.64,3.45-11.38,7-17.79,8.57a56.46,56.46,0,0,1-10.53,1.38,205.08,205.08,0,0,1-40.39-1.6l-.39-.33A65.74,65.74,0,0,0,139.14,126.77Z"/><path class="cls-23" d="M196.74,101.93a4.86,4.86,0,0,1-.84,4.87,13.35,13.35,0,0,1-4.08,3.17,103,103,0,0,1-33.55,12.65,13.73,13.73,0,0,1-6.56,0,6,6,0,0,1-3.27-2.56l.12-.1c10-8,20.38-16.18,32.7-19.71a50.39,50.39,0,0,1,8.29-1.62c.56.07,1.11.15,1.67.24C193.39,99.22,195.82,99.94,196.74,101.93Z"/><path class="cls-24" d="M139.14,126.77c1-.64,2.07-1.3,3.07-2,2.14-1.49,4.19-3.1,6.23-4.72a6,6,0,0,0,3.27,2.56,13.73,13.73,0,0,0,6.56,0A103,103,0,0,0,191.82,110a13.35,13.35,0,0,0,4.08-3.17,4.86,4.86,0,0,0,.84-4.87c-.92-2-3.35-2.71-5.52-3.07-.56-.09-1.11-.17-1.67-.24a58.2,58.2,0,0,1,8.25-.31l.49.23a7.26,7.26,0,0,1,4,5.14c.49,3.72-2.83,6.72-5.82,9-10.25,7.77-21,15.74-33.53,18.43a77.81,77.81,0,0,1-13.72,1.36c-2.91.09-6.1.05-8.35-1.8A5,5,0,0,1,139.14,126.77Z"/><path class="cls-25" d="M269.4,31.37c2.29.09,4.13,1.83,5.68,3.52a168.09,168.09,0,0,1,18.11,24.37,31.86,31.86,0,0,1,4,7.83,11.44,11.44,0,0,1-.51,8.57,6.23,6.23,0,0,1-3.42,3.07c-1.8.58-3.76.06-5.54-.57a43.18,43.18,0,0,1-10.92-5.79A30.26,30.26,0,0,1,274,62c-.21-2.84,0-5.73-.57-8.53-.86-4.46-3.46-8.38-4.95-12.67a52,52,0,0,1-1.89-8.14A3.69,3.69,0,0,1,269.4,31.37Z"/><path class="cls-26" d="M287.68,78.16c1.78.63,3.74,1.15,5.54.57a6.23,6.23,0,0,0,3.42-3.07,11.44,11.44,0,0,0,.51-8.57,31.86,31.86,0,0,0-4-7.83,168.09,168.09,0,0,0-18.11-24.37c-1.55-1.69-3.39-3.43-5.68-3.52a3.69,3.69,0,0,0-2.8,1.31c-.38-2.17-.75-4.35-1.32-6.47a2.87,2.87,0,0,1,1.42-2.28c1.17-.54,2.51.17,3.58.89a83.23,83.23,0,0,1,24.61,25.79c1.85,3,3.51,6.22,5.53,9.17,3.15,4.58,7.19,8.63,9.42,13.72s2.08,11.87-2.29,15.31a10.72,10.72,0,0,1-6.73,2.13A74.1,74.1,0,0,1,290.63,87a31.19,31.19,0,0,1-13.87-14.67A43.18,43.18,0,0,0,287.68,78.16Z"/><path class="cls-27" d="M319.52,90.63c-3.15-13-8.92-25-14.84-37l18.68,31.85a112.77,112.77,0,0,0,7.75,12c2.33,3,5,5.79,7.19,8.88.29.4.57.81.85,1.23q1.47,2.37,2.92,4.74c.86,1.48,1.7,3,2.55,4.46.05.39.12.77.18,1.16l-.66-.34A160.91,160.91,0,0,1,318,100.92a3.39,3.39,0,0,0,.87-.86C320.8,97.42,320.28,93.79,319.52,90.63Z"/><path class="cls-22" d="M253,6.72l.66.36,24.62,18.13c2.92,2.15,5.9,4.37,7.93,7.37,1.37,2,2.27,4.37,3.88,6.21,2.47,2.81,6.29,4.08,9,6.63a25.32,25.32,0,0,1,4.26,5.88l1.35,2.29c5.92,12,11.69,24.07,14.84,37,.76,3.16,1.28,6.79-.62,9.43a3.39,3.39,0,0,1-.87.86l-.85-.66a64.75,64.75,0,0,0-7.87-5.76,46.9,46.9,0,0,0-8.49-3.56,10.72,10.72,0,0,0,6.73-2.13c4.37-3.44,4.52-10.22,2.29-15.31s-6.27-9.14-9.42-13.72c-2-3-3.68-6.12-5.53-9.17a83.23,83.23,0,0,0-24.61-25.79c-1.07-.72-2.41-1.43-3.58-.89a2.87,2.87,0,0,0-1.42,2.28,27.36,27.36,0,0,0-.82-2.62c-1.9-5.11-5.41-9.42-8.86-13.64Z"/><path class="cls-28" d="M326.49,69.83c-1.31,1.61-3.9,1.57-5.67.5a13.14,13.14,0,0,1-4-4.68L303,43a50,50,0,0,0-6-8.43c-4-4.3-9.45-7-14.24-10.46s-9.29-8.15-9.95-14c1,.2,2,.44,3,.71,2.23,1.52,4.12,3.56,6.54,4.75,3.53,1.74,7.85,1.5,11.19,3.57,2.78,1.73,4.42,4.79,6.79,7,3.91,3.72,9.57,5,13.72,8.51,3.09,2.59,5.13,6.19,7,9.74s3.87,7.41,5.71,11.16l.54,9.63C327.47,66.81,327.51,68.59,326.49,69.83Z"/><path class="cls-29" d="M263.37,7.22c4.13.49,8.4,1,11.93,3.22.19.11.37.24.56.37-1-.27-2-.51-3-.71.66,5.86,5.15,10.57,9.95,14S293,30.27,297,34.57A50,50,0,0,1,303,43l13.81,22.65a13.14,13.14,0,0,0,4,4.68c1.77,1.07,4.36,1.11,5.67-.5,1-1.24,1-3,.89-4.62l-.54-9.63q4.4,9,8.25,18.27l.66,3.4c.34,1.77.4,4.1-1.25,4.82a3.54,3.54,0,0,1-2.59-.17c-3.56-1.32-6.39-4-9.1-6.69l-8.92-8.71-8.73-14.19c-2.45-4-5-8.05-8.74-10.81-1.95-1.44-4.21-2.51-5.88-4.27s-2.54-3.87-3.86-5.78a30.27,30.27,0,0,0-5.53-5.61A168.48,168.48,0,0,0,253.61,7.08l-.92-.68-.41-.5Z"/><path class="cls-30" d="M334.77,92.22c2,.79,4.58,1.22,5.92-.43a3.36,3.36,0,0,0,.63-1.32,57.85,57.85,0,0,1,2,8.74c.6,4.4.56,8.88.88,13.31.05.7.11,1.39.18,2.09s.14,1.17.22,1.75l-2.5-4.06c-.93-1.62-1.89-3.21-2.92-4.74l-4.41-7.18q-3.86-6.25-7.7-12.51A35.38,35.38,0,0,0,334.77,92.22Z"/><path class="cls-31" d="M340.69,91.79c-1.34,1.65-3.95,1.22-5.92.43A35.38,35.38,0,0,1,327,87.87q-6.57-10.68-13.15-21.37l8.92,8.71c2.71,2.65,5.54,5.37,9.1,6.69a3.54,3.54,0,0,0,2.59.17c1.65-.72,1.59-3,1.25-4.82l-.66-3.4c1,2.42,2,4.85,3,7.29,1.19,3.07,2.33,6.17,3.28,9.33A3.36,3.36,0,0,1,340.69,91.79Z"/><path class="cls-32" d="M198.13,24.44c-.53-1.17-.59-2.88.57-3.44a2.68,2.68,0,0,1,1.68-.05c2.91.65,5.38,2.53,7.57,4.54a50.47,50.47,0,0,1,11.13,15A14.91,14.91,0,0,1,221,48c-.2,2.61-1.89,5.27-4.45,5.83a9.77,9.77,0,0,1-4.15-.33l-1.78-.41c-2.83-6.25-2.55-13.76-6.17-19.6a49.06,49.06,0,0,0-5.14-6.22A11.79,11.79,0,0,0,198.13,24.44Z"/><path class="cls-33" d="M212.4,53.51a9.77,9.77,0,0,0,4.15.33c2.56-.56,4.25-3.22,4.45-5.83a14.91,14.91,0,0,0-1.92-7.52,50.47,50.47,0,0,0-11.13-15c-2.19-2-4.66-3.89-7.57-4.54a2.68,2.68,0,0,0-1.68.05c-1.16.56-1.1,2.27-.57,3.44a11.79,11.79,0,0,1,1.18,2.84l-.66-.77a45.49,45.49,0,0,1-4.77-7.16A3.7,3.7,0,0,1,194,18.3c.5-2,2.83-3.06,4.87-2.82a11.87,11.87,0,0,1,5.45,2.67,96.32,96.32,0,0,1,27.49,32.22c.88,1.69,1.74,3.57,1.35,5.43a5.67,5.67,0,0,1-3.8,3.92,13.07,13.07,0,0,1-5.64.39,38.88,38.88,0,0,1-10.28-2.53A20.38,20.38,0,0,1,211,53.83c-.12-.24-.22-.49-.33-.73Z"/><path class="cls-34" d="M239.35,64.48a6.35,6.35,0,0,0,.82-3.32c0-5-3.93-8.94-7-12.85a74.9,74.9,0,0,1-8.24-13.67c.89,1.43,1.8,2.84,2.79,4.19a84.42,84.42,0,0,0,7.3,8.28l6.65,6.9,20.79,21.58.82,1.28a.59.59,0,0,1,0,.14c-1.28-.55-2.58-1.07-3.88-1.57a105.91,105.91,0,0,0-13.12-4.08c-6.62-1.61-13.43-2.59-19.81-5a39.11,39.11,0,0,1-4.39-2,43.74,43.74,0,0,0,8,2.4C233.4,67.46,237.56,67.38,239.35,64.48Z"/><path class="cls-35" d="M194,7.24c7.56,5.69,16.89,9.15,23.24,16.16,3,3.37,5.24,7.38,7.64,11.24a74.9,74.9,0,0,0,8.24,13.67c3.09,3.91,7,7.87,7,12.85a6.35,6.35,0,0,1-.82,3.32c-1.79,2.9-5.95,3-9.28,2.32a43.74,43.74,0,0,1-8-2.4,27.89,27.89,0,0,1-8.67-6.82,38.88,38.88,0,0,0,10.28,2.53,13.07,13.07,0,0,0,5.64-.39,5.67,5.67,0,0,0,3.8-3.92c.39-1.86-.47-3.74-1.35-5.43a96.32,96.32,0,0,0-27.49-32.22,11.87,11.87,0,0,0-5.45-2.67c-2-.24-4.37.83-4.87,2.82a3.7,3.7,0,0,0-.09,1.05c-3.4-6.17-5.89-13-9.4-18.94C187.86,2.13,191,4.92,194,7.24Z"/><path class="cls-36" d="M253.84,44.1a5.74,5.74,0,0,1-5.66.55,16.45,16.45,0,0,1-4.84-3.42C232.09,31,221.17,20.49,210.26,9.94a3.49,3.49,0,0,1-1.19-1.74,2.41,2.41,0,0,1,2.15-2.53l.13,0c2.51,1.18,4.91,2.59,7.3,4l19,11.19c4.13,2.42,8.3,4.88,11.8,8.15a40,40,0,0,1,5.77,6.88l.13.21c.06.31.11.61.16.92C255.91,39.52,255.81,42.48,253.84,44.1Z"/><path class="cls-37" d="M205.38,8.25a12.69,12.69,0,0,0,3.2,4.41c1.39,1.42,2.8,2.83,4.2,4.23-1-.55-2-1.07-2.95-1.59A262.91,262.91,0,0,1,184.77.08L195.5,1.61a74.86,74.86,0,0,1,10.64,2.05A4.58,4.58,0,0,0,205.38,8.25Z"/><path class="cls-37" d="M253,53.72c2.76.68,5.67-.93,7.36-3.21a12.84,12.84,0,0,0,1-1.57,40.15,40.15,0,0,1,1.36,7.22c.57,6.29-.37,12.82.3,19l.15,1.19-.75-.79c-1.59-2.45-3.14-4.94-4.85-7.25-9.69-13.1-25.62-21.4-32.47-36.18-.85-1.82-1.55-3.73-2.41-5.55,8.5,8.17,17.17,16.17,25.83,24.17A11.08,11.08,0,0,0,253,53.72Z"/><path class="cls-38" d="M212.78,16.89c-1.4-1.4-2.81-2.81-4.2-4.23a12.69,12.69,0,0,1-3.2-4.41,4.58,4.58,0,0,1,.76-4.59c.65.19,1.29.39,1.92.62,1.12.4,2.22.87,3.29,1.37l-.13,0a2.41,2.41,0,0,0-2.15,2.53,3.49,3.49,0,0,0,1.19,1.74c10.91,10.55,21.83,21.1,33.08,31.29a16.45,16.45,0,0,0,4.84,3.42,5.74,5.74,0,0,0,5.66-.55c2-1.62,2.07-4.58,1.7-7.11,0-.31-.1-.61-.16-.92a46.08,46.08,0,0,1,6,12.87,12.84,12.84,0,0,1-1,1.57c-1.69,2.28-4.6,3.89-7.36,3.21a11.08,11.08,0,0,1-4.5-2.94c-8.66-8-17.33-16-25.83-24.17a19.87,19.87,0,0,0-2-3.37A24.08,24.08,0,0,0,212.78,16.89Z"/><path class="cls-39" d="M104.62,39l.16,0a195.5,195.5,0,0,0,18.93,7.92c5.23,1.79,10.63,3.21,15.58,5.68a58.76,58.76,0,0,1,6.59,4A115.62,115.62,0,0,0,115,49.84Z"/><path class="cls-1" d="M145.88,56.52c4.31,2.92,8.46,6.15,13.1,8.51a70.17,70.17,0,0,0,12.23,4.56,43.35,43.35,0,0,1,7.73,7c1.75,2.06,3.3,4.47,3.53,7.17A10.29,10.29,0,0,1,178.9,92,17,17,0,0,1,174,95a39.16,39.16,0,0,1-6,.84,25.7,25.7,0,0,1-13-2.49,55.73,55.73,0,0,0,18.37-4.43c2-.87,4.18-2.07,4.9-4.16.81-2.37-.59-4.94-2.27-6.81a34.82,34.82,0,0,0-8.71-6.55c-11.27-6.48-23.64-10.74-35.93-15a6.35,6.35,0,0,0-3-.51,4,4,0,0,0-3.08,4,4.37,4.37,0,0,0,.06.72L115,49.84A115.62,115.62,0,0,1,145.88,56.52Z"/><path class="cls-40" d="M158.63,76.5c1.54,2.23,2.47,5.23,1.22,7.63s-4,3.3-6.63,3.84c-1.39.28-2.8.51-4.21.67-.81-1-1.54-2.06-2.25-3.12l-1-1.44c-.21-.3-.44-.6-.65-.91-4.47-6.37-9.86-12-15.24-17.67l0-.06,0,0c5.13.92,10.35,1.31,15.38,2.66C150.42,69.44,155.57,72.05,158.63,76.5Z"/><path class="cls-41" d="M153.22,88c2.59-.54,5.41-1.5,6.63-3.84s.32-5.4-1.22-7.63c-3.06-4.45-8.21-7.06-13.43-8.45-5-1.35-10.25-1.74-15.38-2.66l-4.51-4.72a4.37,4.37,0,0,1-.06-.72,4,4,0,0,1,3.08-4,6.35,6.35,0,0,1,3,.51c12.29,4.23,24.66,8.49,35.93,15A34.82,34.82,0,0,1,176,78c1.68,1.87,3.08,4.44,2.27,6.81-.72,2.09-2.87,3.29-4.9,4.16A55.73,55.73,0,0,1,155,93.37c-.29-.14-.58-.28-.86-.44A17.62,17.62,0,0,1,150,89.72c-.33-.35-.64-.71-.94-1.08C150.42,88.48,151.83,88.25,153.22,88Z"/><path class="cls-42" d="M128.7,35.88c.63-.05,1.27-.09,1.91-.12a2,2,0,0,0-.06.93c.29,1.36,1.55,2.25,2.71,3q8.09,5.31,16.18,10.61c7.22,4.74,14.47,9.49,22.28,13.18A94,94,0,0,0,186.49,69c2.91.81,6.18,1.45,8.84,0-.33-3.08-.67-6.17-1-9.25l0,0c2.66,2.55,6.12,4.08,9.11,6.23,4.59,3.29,8.15,8,11.92,12.35.53.6,1.06,1.2,1.6,1.78l-1.53.55h-.41c-1,0-1.91-.1-2.86-.18-13.36-1.26-25.74-7.86-38.59-12-4.49-1.47-9.11-2.65-13.32-4.81a80.39,80.39,0,0,1-7.07-4.36A156.5,156.5,0,0,0,106.6,38.78l-.22-.06C113.81,37.65,121.21,36.41,128.7,35.88Z"/><path class="cls-43" d="M189,56.17a8.23,8.23,0,0,1-4.29,2.7c-5.62,1.72-11.74.37-17.21-1.8a71.73,71.73,0,0,1-22.18-14.49c-1.39-1.3-2.83-2.84-2.92-4.75A3,3,0,0,1,143,36a51,51,0,0,1,17.85,4.84c4,2,7.72,4.63,12,6,4.56,1.44,9.71,1.41,13.63,4.15a16.8,16.8,0,0,1,3.42,3.37A5.56,5.56,0,0,1,189,56.17Z"/><path class="cls-44" d="M130.55,36.69a2,2,0,0,1,.06-.93A82.24,82.24,0,0,1,143,36a3,3,0,0,0-.6,1.85c.09,1.91,1.53,3.45,2.92,4.75a71.73,71.73,0,0,0,22.18,14.49c5.47,2.17,11.59,3.52,17.21,1.8a8.23,8.23,0,0,0,4.29-2.7,5.56,5.56,0,0,0,.88-1.84,58.44,58.44,0,0,0,4.48,5.43c.33,3.08.67,6.17,1,9.25-2.66,1.44-5.93.8-8.84,0a94,94,0,0,1-14.77-5.51c-7.81-3.69-15.06-8.44-22.28-13.18q-8.1-5.3-16.18-10.61C132.1,38.94,130.84,38.05,130.55,36.69Z"/><path class="cls-45" d="M191.37,88.08c1-3.74-.14-7.8-2.22-11.06-.35-.55-.73-1.07-1.13-1.59,6.44,2.83,12.83,5.89,19.79,6.17a53.25,53.25,0,0,0,5.78-.2l-9.53,3.43-13.33,4.82A5.83,5.83,0,0,0,191.37,88.08Z"/><path class="cls-39" d="M174,95a17,17,0,0,0,5-3.06,10.29,10.29,0,0,0,3.57-8.18c-.23-2.7-1.78-5.11-3.53-7.17a43.35,43.35,0,0,0-7.73-7c3.79,1.13,7.62,2.18,11.31,3.57,1.85.69,3.68,1.47,5.5,2.27.4.52.78,1,1.13,1.59,2.08,3.26,3.23,7.32,2.22,11.06a5.83,5.83,0,0,1-.64,1.57L186.89,91A98.62,98.62,0,0,1,174,95Z"/><path class="cls-46" d="M86.51,119.12c-1.31-5.2,2.87-10.16,7.27-13.22,9.76-6.77,21.75-9.31,33.39-11.7a12.62,12.62,0,0,1,5.21-.33c3.25.73,5.46,4.09,5.62,7.42s-1.36,6.55-3.39,9.2a38.37,38.37,0,0,1-3.05,3.45,18.9,18.9,0,0,1-1.95.86c-5,1.8-10.44,1.21-15.62,2.21-4,.77-7.71,2.48-11.65,3.36a46,46,0,0,1-14.2.5l-.9-.09A4.84,4.84,0,0,1,86.51,119.12Z"/><path class="cls-47" d="M88.27,105.1c5.49-4.31,12-7.17,18.52-9.57,7.45-2.72,15.27-4.91,23.19-4.53,4,.19,8.22,1.21,10.76,4.26a11.57,11.57,0,0,1,2.15,9.12c-.45.47-.91.94-1.37,1.4-3,3.08-6.15,6.24-10,8.16a38.37,38.37,0,0,0,3.05-3.45c2-2.65,3.55-5.86,3.39-9.2s-2.37-6.69-5.62-7.42a12.62,12.62,0,0,0-5.21.33c-11.64,2.39-23.63,4.93-33.39,11.7-4.4,3.06-8.58,8-7.27,13.22a4.84,4.84,0,0,0,.73,1.66,111.31,111.31,0,0,1-14.41-2.38,37.13,37.13,0,0,0,4.06-3C80.81,112.13,84.24,108.26,88.27,105.1Z"/><path class="cls-48" d="M74.71,107.6c3.78-2,7.39-4.25,11.14-6.28C99,94.18,113.58,90.12,128.21,87a68.57,68.57,0,0,1,13.28-1.82,37.19,37.19,0,0,1,5.27.32,31.8,31.8,0,0,0,3.19,4.2,17.62,17.62,0,0,0,4.15,3.21q-5.61,5.73-11.21,11.45a11.57,11.57,0,0,0-2.15-9.12C138.2,92.21,134,91.19,130,91c-7.92-.38-15.74,1.81-23.19,4.53-6.56,2.4-13,5.26-18.52,9.57-4,3.16-7.46,7-11.38,10.32a37.13,37.13,0,0,1-4.06,3,112.27,112.27,0,0,1-14.14-4.27A100.41,100.41,0,0,0,74.71,107.6Z"/><path class="cls-49" d="M69,106.16c1.56-1.56,3-3.2,4.46-4.89.94-.1,1.88-.19,2.8-.34,4-.64,7.62-2.47,11.25-4.19A255.31,255.31,0,0,1,119.93,84c1.86-.59,3.82-1.22,5.16-2.64,3-3.18,1.13-8.8-2.51-11.19a16.36,16.36,0,0,0-7.74-2.32c.69-.19,1.39-.38,2.08-.55a62.68,62.68,0,0,1,13-1.77c5.38,5.63,10.77,11.3,15.24,17.67a123.47,123.47,0,0,0-28.57,4.42,143.7,143.7,0,0,0-37,16.25c-2.63,1.62-5.21,3.31-7.93,4.74A55.87,55.87,0,0,1,60,113,42.48,42.48,0,0,0,69,106.16Z"/><path class="cls-50" d="M117.06,73.36c.47,3-2.36,5.38-4.87,7.08-6.06,4.08-12.15,8.19-18.84,11.13a45.39,45.39,0,0,1-15.33,4A133.22,133.22,0,0,1,88.35,83.16a58.22,58.22,0,0,1,13.52-10.09c.72-.39,1.45-.76,2.18-1.12a63.31,63.31,0,0,1,6.75-2.83,8.25,8.25,0,0,1,.86,0C114.11,69.38,116.67,70.94,117.06,73.36Z"/><path class="cls-51" d="M78,95.53a45.39,45.39,0,0,0,15.33-4c6.69-2.94,12.78-7,18.84-11.13,2.51-1.7,5.34-4.08,4.87-7.08-.39-2.42-3-4-5.4-4.2a8.25,8.25,0,0,0-.86,0c1.33-.47,2.68-.92,4-1.3a16.36,16.36,0,0,1,7.74,2.32c3.64,2.39,5.49,8,2.51,11.19-1.34,1.42-3.3,2-5.16,2.64A255.31,255.31,0,0,0,87.48,96.74c-3.63,1.72-7.28,3.55-11.25,4.19-.92.15-1.86.24-2.8.34C75,99.4,76.51,97.47,78,95.53Z"/><path class="cls-52" d="M17.56,33.21a8.31,8.31,0,0,0-1.35.72c-.1,3.69,3.88,6,7.28,7.39L54.54,54.4A41.74,41.74,0,0,0,65,57.74c3.63.49,7.55-.07,10.44-2.31A29.6,29.6,0,0,0,69,44.81C73.43,47,77.3,50.37,81,53.74c4.88,4.41,10,9.34,12.11,15.38.12.36.24.72.34,1.09-1-.26-2-.56-3-.87L36.3,52.76c-3.58-1.1-7.22-2.22-10.34-4.28-1.8-1.19-3.4-2.66-5.1-4C14.77,39.68,7.47,36.77.16,34.1,6,34,11.83,33.24,17.56,33.21Z"/><path class="cls-53" d="M63,45.6a5.43,5.43,0,0,1-3.91,4,12.15,12.15,0,0,1-5.81,0c-6-1.16-11.47-4-16.89-6.7l-9.06-4.6a3.72,3.72,0,0,1-2-1.74,2.37,2.37,0,0,1,.87-2.58,27.25,27.25,0,0,1,6.15,1.93c3,1.39,5.76,3.39,8.87,4.58C48,43.05,55.59,41.6,62.67,42.8A5.07,5.07,0,0,1,63,45.6Z"/><path class="cls-54" d="M16.21,33.93a8.31,8.31,0,0,1,1.35-.72,43.12,43.12,0,0,1,8.68.73,2.37,2.37,0,0,0-.87,2.58,3.72,3.72,0,0,0,2,1.74l9.06,4.6c5.42,2.75,10.92,5.54,16.89,6.7a12.15,12.15,0,0,0,5.81,0,5.43,5.43,0,0,0,3.91-4,5.07,5.07,0,0,0-.36-2.8,23.59,23.59,0,0,1,3,.7A22.77,22.77,0,0,1,69,44.81a29.6,29.6,0,0,1,6.46,10.62c-2.89,2.24-6.81,2.8-10.44,2.31A41.74,41.74,0,0,1,54.54,54.4l-31-13.08C20.09,39.89,16.11,37.62,16.21,33.93Z"/><path class="cls-55" d="M16.2,47.94,59.7,66.09c1.58.67,3.3,1.45,4.06,3,1.39,2.81-1.4,6.07-4.39,7a28.12,28.12,0,0,1-4.83.88c-9.13-.92-18-4.52-23.13-11.89C30.06,63.18,29,61,27.1,59.55a20.05,20.05,0,0,0-3.9-2.1,43.43,43.43,0,0,1-12.59-9.18C11.67,46.64,14.32,47.16,16.2,47.94Z"/><path class="cls-56" d="M.53,34.86a57.43,57.43,0,0,1,12.92,6C20,44.93,25.79,50.37,32.94,53.29,37,55,41.43,55.75,45.74,56.76c16,3.74,31.15,10.71,47,14.53l-.24,0c-9.72,2-19.27,5-29.15,5.74A49.19,49.19,0,0,1,54.54,77a28.12,28.12,0,0,0,4.83-.88c3-1,5.78-4.22,4.39-7-.76-1.54-2.48-2.32-4.06-3L16.2,47.94c-1.88-.78-4.53-1.3-5.59.33a55.62,55.62,0,0,1-5.75-7C3.38,39.16,2,37,.53,34.86Z"/><path class="cls-57" d="M242.09,87.68l-2.93.82c-4.68-.43-9.42-.77-13.89-2.21-3.91-1.27-7.56-3.36-11.31-5l1.51-.54c2.62.89,5.23,1.87,7.85,2.77A74.9,74.9,0,0,0,242.09,87.68Z"/><path class="cls-57" d="M241.24,90.44a32.79,32.79,0,0,1,11.42-2.14,41,41,0,0,1,6,.78l13.49,2.42a142.46,142.46,0,0,1,17.95,4c16.07,5.13,29.69,15.81,44.68,23.55-1.88-.47-3.75-1-5.62-1.53l.38.07c-3.34-2-6.74-3.84-10.13-5.71l-13.91-7.68a91.76,91.76,0,0,0-14.36-6.86,90.49,90.49,0,0,0-13.45-3.11c-8.57-1.54-17.15-3.06-25.78-4.27-5.89.52-11.83,2.94-17.26,5.53q-8.75,4.16-17.16,9a5.88,5.88,0,0,1,0-1.11A80,80,0,0,1,241.24,90.44Z"/><path class="cls-57" d="M281.64,91.85c-.94-.43-1.9-.83-2.86-1.23a26.78,26.78,0,0,0-6.28-6.2c-1.81-1.19-3.83-2-5.68-3.18a41,41,0,0,1-4.75-3.58l-2.67-2.22c1.3.5,2.6,1,3.88,1.57h0c1.09,1,2.17,1.94,3.31,2.83C271.7,83.81,278.23,86.35,281.64,91.85Z"/><path class="cls-57" d="M321.25,118.91,334.61,121a15,15,0,0,1,3.76.93,17.85,17.85,0,0,1,4.19,3,42.82,42.82,0,0,0,6.73,4.68,53.27,53.27,0,0,1,5.56,3.27c4.27,3.14,6.75,8.07,9.91,12.33,5.25,7.06,12.6,12.5,17.07,20.09-2.33-1.28-4.62-2.62-6.89-4l.31.11c-1.42-1.77-2.72-3.71-4-5.55A124.71,124.71,0,0,0,340,124.23a54.92,54.92,0,0,0-8.93-2.6,98.5,98.5,0,0,0-21.52-2.11c.4-.33.8-.65,1.21-1l-.18-.13c.38-.06.76-.12,1.14-.16A36.69,36.69,0,0,1,321.25,118.91Z"/><path class="cls-57" d="M348.42,125.82c-1.05-2.24-2.08-4.48-3.29-6.62-.31-.55-.65-1.09-1-1.62l.66.34c-.06-.39-.13-.77-.18-1.16,0-.13,0-.27-.05-.4s0-.36-.07-.54a81.28,81.28,0,0,1,6.19,11.39C349.91,126.78,349.15,126.32,348.42,125.82Z"/><path class="cls-57" d="M378,165.43c4.17,1.54,8.41,3.13,11.92,5.85s6.13,6.46,8.68,10.13l7.05,10.16c1.36,2,2.72,3.93,3.89,6a102.18,102.18,0,0,1,4.89,11.07,33.67,33.67,0,0,1-3.15,1.65l-.87-2c-3.37-7.77-6.91-15.55-11.87-22.41a64,64,0,0,0-34.22-23.92l-.27-.07.59-.28a13.39,13.39,0,0,1,6.06,1.14Z"/><path class="cls-58" d="M217.72,102.39c.13-.17.27-.34.4-.52l-.19-.06-1.19-.34c3.33-2.22,6.56-4.65,9.89-6.83a44.18,44.18,0,0,1,13.1-6.09h-.13l-.44,0,2.93-.82a74.9,74.9,0,0,1-18.77-4.19c-2.62-.9-5.23-1.88-7.85-2.77h0l1.53-.55c-.54-.58-1.07-1.18-1.6-1.78,7.11,3.05,14.36,5.94,22,6.84,3.6.42,7.23.4,10.84.71,3.94.34,7.84,1.08,11.73,1.81l15.1,2.85,4.29.82c-.2-.26-.4-.53-.61-.79,1,.4,1.92.8,2.86,1.23-3.41-5.5-9.94-8-15-12C265.46,79,264.38,78,263.29,77l.09,0-.12-.17c0-.16,0-.33-.07-.49L263,75.19a23.47,23.47,0,0,0,5.49,5.27c2,1.29,4.13,2.17,6.17,3.32a38.94,38.94,0,0,1,10.19,8.76,95.75,95.75,0,0,1,15.63,4.61,115.13,115.13,0,0,1,14.5,7.42q17.22,10,33.51,21.48c0-.08-.07-.16-.11-.23.73.5,1.49,1,2.27,1.39a81.28,81.28,0,0,0-6.19-11.39c-.05-.4-.11-.81-.15-1.21-.07-.7-.13-1.39-.18-2.09,8.24,10.85,14.7,23.09,23.36,33.65a99.55,99.55,0,0,0,8.69,9.33c10.64,10.07,23.88,18.35,29.95,31.68,3.19,7,6.45,13.73,9.51,20.68-.42.27-.85.53-1.28.79a102.18,102.18,0,0,0-4.89-11.07c-1.17-2.08-2.53-4.05-3.89-6l-7.05-10.16c-2.55-3.67-5.15-7.4-8.68-10.13S382.14,167,378,165.43l-7.3-2.71a13.39,13.39,0,0,0-6.06-1.14c.49-.23,1-.45,1.49-.66l.61-.1-.1-.09-.68-.66-1.8-1.72a56,56,0,0,1,10.81,3c2.27,1.38,4.56,2.72,6.89,4-4.47-7.59-11.82-13-17.07-20.09-3.16-4.26-5.64-9.19-9.91-12.33a53.27,53.27,0,0,0-5.56-3.27,42.82,42.82,0,0,1-6.73-4.68,17.85,17.85,0,0,0-4.19-3,15,15,0,0,0-3.76-.93l-13.36-2.08a36.69,36.69,0,0,0-9.57-.64c-.38,0-.76.1-1.14.16l-.22-.16.16,0-.18,0c-.66-.48-1.3-1-1.94-1.51,1.78,0,3.56-.07,5.33-.09a77.81,77.81,0,0,1,15.5.9c1.87.54,3.74,1.06,5.62,1.53-15-7.74-28.61-18.42-44.68-23.55a142.46,142.46,0,0,0-17.95-4l-13.49-2.42a41,41,0,0,0-6-.78,32.79,32.79,0,0,0-11.42,2.14,80,80,0,0,0-23.71,12.93v-.05A5.68,5.68,0,0,1,217.72,102.39Z"/><path class="cls-57" d="M106.9,70.64c-1,.41-1.91.85-2.85,1.31a46.91,46.91,0,0,1-7.21.09,37.36,37.36,0,0,1-4.32-.7l.24,0,.93-.19c0-.2-.09-.39-.14-.59l.68.08A57.1,57.1,0,0,0,106.9,70.64Z"/><path class="cls-58" d="M93.14,69.12a37.81,37.81,0,0,0,11.68.18c3.42-.48,6.76-1.43,10.19-1.85.63-.08,1.27-.14,1.91-.18a63.11,63.11,0,0,0-10,3.37,57.1,57.1,0,0,1-12.67,0l-.68-.08c0-.1,0-.2-.07-.3C93.38,69.84,93.26,69.48,93.14,69.12Z"/></g></g></svg>